<svg width="24" height="20" viewBox="0 0 24 20" fill="none" xmlns="http://www.w3.org/2000/svg">
<path fill-rule="evenodd" clip-rule="evenodd" d="M3.06066 0.93934C2.47487 0.353553 1.52513 0.353553 0.93934 0.93934C0.353553 1.52513 0.353553 2.47487 0.93934 3.06066L7.87868 10L0.93934 16.9393C0.353553 17.5251 0.353553 18.4749 0.93934 19.0607C1.52513 19.6464 2.47487 19.6464 3.06066 19.0607L11.0607 11.0607C11.6464 10.4749 11.6464 9.52513 11.0607 8.93934L3.06066 0.93934ZM15.0607 0.93934C14.4749 0.353553 13.5251 0.353553 12.9393 0.93934C12.3536 1.52513 12.3536 2.47487 12.9393 3.06066L19.8787 10L12.9393 16.9393C12.3536 17.5251 12.3536 18.4749 12.9393 19.0607C13.5251 19.6464 14.4749 19.6464 15.0607 19.0607L23.0607 11.0607C23.6464 10.4749 23.6464 9.52513 23.0607 8.93934L15.0607 0.93934Z" fill="white"/>
</svg>
