<svg width="12" height="11" viewBox="0 0 12 11" fill="none" xmlns="http://www.w3.org/2000/svg">
<path fill-rule="evenodd" clip-rule="evenodd" d="M11.3536 0.853553C11.5488 0.658291 11.5488 0.341709 11.3536 0.146447C11.1583 -0.0488155 10.8417 -0.0488155 10.6464 0.146447L1.35355 9.43934C1.15829 9.6346 1.15829 9.95118 1.35355 10.1464C1.54882 10.3417 1.8654 10.3417 2.06066 10.1464L4.53806 7.66904C5.00473 7.75161 5.49205 7.79289 6 7.79289C8.5 7.79289 10.5 6.29289 12 4.79289C11.2807 4.0736 10.3885 3.35431 9.40668 2.80042L11.3536 0.853553ZM7.93226 4.27485L5.48196 6.72515C5.64718 6.76934 5.82084 6.79289 6 6.79289C7.10457 6.79289 8 5.89746 8 4.79289C8 4.61373 7.97644 4.44008 7.93226 4.27485ZM6 1.79289C6.57956 1.79289 7.1594 1.89261 7.72657 2.06632L6.82325 2.96965C6.57218 2.8561 6.29347 2.79289 6 2.79289C4.89543 2.79289 4 3.68832 4 4.79289C4 5.08636 4.06321 5.36507 4.17675 5.61614L2.70882 7.08408C1.67382 6.58446 0.770882 5.82074 0 4.79289C1.72619 2.89408 3.47301 1.79289 6 1.79289Z" fill="#363946"/>
</svg>
