<svg width="20" height="26" viewBox="0 0 20 26" fill="none" xmlns="http://www.w3.org/2000/svg">
<path fill-rule="evenodd" clip-rule="evenodd" d="M5.38552 12.9213C6.39418 13.2392 7.8273 13.5411 9.71312 13.2717C11.1147 13.0715 12.0589 12.357 12.8501 11.7583L12.8736 11.7405C13.6873 11.1249 14.3495 10.6326 15.3315 10.4689C16.9242 10.2035 18.2247 11.0359 18.6343 11.4455C18.8853 11.6965 19.2717 11.7521 19.5833 11.582C19.8949 11.4118 20.0571 11.0567 19.9817 10.7098L17.9817 1.50988C17.9409 1.32203 17.8337 1.15517 17.68 1.03983C17.0078 0.535705 15.5723 -0.267208 13.0868 0.0878509C11.7546 0.278174 10.9144 0.889185 10.1417 1.45121L10.1196 1.46724C9.36424 2.01666 8.62361 2.55535 7.38021 2.9106C6.42565 3.18333 5.38498 3.13378 4.44206 2.93674C3.95156 2.83424 3.50355 2.69517 3.12879 2.55325C3.17507 2.40364 3.19999 2.24465 3.19999 2.07983C3.19999 1.19618 2.48365 0.479838 1.6 0.479838C0.716342 0.479838 0 1.19618 0 2.07983C0 2.85787 0.55534 3.5062 1.29126 3.65007L6.82633 24.6833C6.93877 25.1106 7.37631 25.3659 7.80358 25.2534C8.23086 25.141 8.48609 24.7034 8.37365 24.2762L5.38552 12.9213Z" fill="white"/>
</svg>
