<svg width="60" height="48" viewBox="0 0 60 48" fill="none" xmlns="http://www.w3.org/2000/svg">
<rect width="60" height="48" rx="4" fill="#FF6666"/>
<path fill-rule="evenodd" clip-rule="evenodd" d="M25.3855 23.9213C26.3942 24.2392 27.8273 24.5411 29.7131 24.2717C31.1147 24.0715 32.0589 23.357 32.8501 22.7583L32.8736 22.7405C33.6873 22.1249 34.3495 21.6326 35.3315 21.4689C36.9242 21.2035 38.2247 22.0359 38.6343 22.4455C38.8853 22.6965 39.2717 22.7521 39.5833 22.582C39.8949 22.4118 40.0571 22.0567 39.9817 21.7098L37.9817 12.5099C37.9409 12.322 37.8337 12.1552 37.68 12.0398C37.0078 11.5357 35.5723 10.7328 33.0868 11.0879C31.7546 11.2782 30.9144 11.8892 30.1417 12.4512L30.1196 12.4672C29.3642 13.0167 28.6236 13.5553 27.3802 13.9106C26.4257 14.1833 25.385 14.1338 24.4421 13.9367C23.9516 13.8342 23.5036 13.6952 23.1288 13.5532C23.1751 13.4036 23.2 13.2446 23.2 13.0798C23.2 12.1962 22.4836 11.4798 21.6 11.4798C20.7163 11.4798 20 12.1962 20 13.0798C20 13.8579 20.5553 14.5062 21.2913 14.6501L26.8263 35.6833C26.9388 36.1106 27.3763 36.3659 27.8036 36.2534C28.2309 36.141 28.4861 35.7034 28.3736 35.2762L25.3855 23.9213Z" fill="white"/>
</svg>
