<svg width="120" height="40" viewBox="0 0 120 40" fill="none" xmlns="http://www.w3.org/2000/svg">
<rect width="120" height="40" rx="4" fill="#000F9B"/>
<rect x="63" y="2" width="55" height="36" rx="3" fill="white"/>
<path d="M76.012 25.14C74.6867 25.14 73.6413 24.818 72.876 24.174C72.1107 23.53 71.7047 22.5827 71.658 21.332C71.6487 21.0707 71.644 20.6693 71.644 20.128C71.644 19.5867 71.6487 19.1807 71.658 18.91C71.6953 17.678 72.1013 16.7307 72.876 16.068C73.66 15.396 74.7053 15.06 76.012 15.06C77.3093 15.06 78.3453 15.396 79.12 16.068C79.904 16.7307 80.3147 17.678 80.352 18.91C80.3707 19.4513 80.38 19.8573 80.38 20.128C80.38 20.408 80.3707 20.8093 80.352 21.332C80.3053 22.5827 79.8993 23.53 79.134 24.174C78.378 24.818 77.3373 25.14 76.012 25.14ZM76.012 23.04C76.4973 23.04 76.8847 22.8953 77.174 22.606C77.4633 22.3073 77.6173 21.8547 77.636 21.248C77.6547 20.7067 77.664 20.3193 77.664 20.086C77.664 19.8527 77.6547 19.4747 77.636 18.952C77.6173 18.3453 77.4633 17.8973 77.174 17.608C76.8847 17.3093 76.4973 17.16 76.012 17.16C75.5173 17.16 75.1253 17.3093 74.836 17.608C74.5467 17.8973 74.3927 18.3453 74.374 18.952C74.3647 19.2133 74.36 19.5913 74.36 20.086C74.36 20.59 74.3647 20.9773 74.374 21.248C74.3927 21.8547 74.5467 22.3073 74.836 22.606C75.1253 22.8953 75.5173 23.04 76.012 23.04ZM82.3098 25C82.2165 25 82.1325 24.9673 82.0578 24.902C81.9925 24.8273 81.9598 24.7433 81.9598 24.65V15.564C81.9598 15.4613 81.9925 15.3773 82.0578 15.312C82.1231 15.2373 82.2071 15.2 82.3098 15.2H86.2718C87.4851 15.2 88.4371 15.4753 89.1278 16.026C89.8185 16.5767 90.1638 17.384 90.1638 18.448C90.1638 19.512 89.8185 20.31 89.1278 20.842C88.4371 21.3647 87.4851 21.626 86.2718 21.626H84.6758V24.65C84.6758 24.7433 84.6431 24.8273 84.5778 24.902C84.5125 24.9673 84.4285 25 84.3258 25H82.3098ZM86.2018 19.624C86.5845 19.624 86.8831 19.526 87.0978 19.33C87.3218 19.1247 87.4338 18.826 87.4338 18.434C87.4338 18.07 87.3311 17.776 87.1258 17.552C86.9298 17.328 86.6218 17.216 86.2018 17.216H84.6338V19.624H86.2018ZM91.8118 25C91.7184 25 91.6344 24.9673 91.5598 24.902C91.4944 24.8273 91.4618 24.7433 91.4618 24.65V15.564C91.4618 15.4613 91.4944 15.3773 91.5598 15.312C91.6251 15.2373 91.7091 15.2 91.8118 15.2H98.4198C98.5224 15.2 98.6064 15.2373 98.6718 15.312C98.7464 15.3773 98.7838 15.4613 98.7838 15.564V16.95C98.7838 17.0527 98.7464 17.1367 98.6718 17.202C98.6064 17.2673 98.5224 17.3 98.4198 17.3H93.9958V19.078H98.1118C98.2144 19.078 98.2984 19.1153 98.3638 19.19C98.4384 19.2553 98.4758 19.3393 98.4758 19.442V20.716C98.4758 20.8187 98.4384 20.9073 98.3638 20.982C98.2984 21.0473 98.2144 21.08 98.1118 21.08H93.9958V22.9H98.5318C98.6344 22.9 98.7184 22.9373 98.7838 23.012C98.8584 23.0773 98.8958 23.1613 98.8958 23.264V24.65C98.8958 24.7527 98.8584 24.8367 98.7838 24.902C98.7184 24.9673 98.6344 25 98.5318 25H91.8118ZM100.794 25C100.701 25 100.617 24.9673 100.542 24.902C100.477 24.8273 100.444 24.7433 100.444 24.65V15.564C100.444 15.4613 100.477 15.3773 100.542 15.312C100.608 15.2373 100.692 15.2 100.794 15.2H102.376C102.591 15.2 102.75 15.2887 102.852 15.466L106.156 20.688V15.564C106.156 15.4613 106.189 15.3773 106.254 15.312C106.32 15.2373 106.404 15.2 106.506 15.2H108.284C108.387 15.2 108.471 15.2373 108.536 15.312C108.602 15.3773 108.634 15.4613 108.634 15.564V24.636C108.634 24.7387 108.602 24.8273 108.536 24.902C108.471 24.9673 108.387 25 108.284 25H106.702C106.488 25 106.329 24.9113 106.226 24.734L102.936 19.722V24.65C102.936 24.7527 102.899 24.8367 102.824 24.902C102.759 24.9673 102.675 25 102.572 25H100.794Z" fill="#000F9B"/>
</svg>
