<svg width="120" height="40" viewBox="0 0 120 40" fill="none" xmlns="http://www.w3.org/2000/svg">
<rect width="120" height="40" rx="4" fill="#B7B7B7"/>
<rect x="2" y="2" width="73" height="36" rx="3" fill="white"/>
<path d="M15.012 25.14C13.6773 25.14 12.6273 24.818 11.862 24.174C11.106 23.53 10.7047 22.5873 10.658 21.346C10.6487 21.094 10.644 20.6833 10.644 20.114C10.644 19.5353 10.6487 19.1153 10.658 18.854C10.7047 17.6407 11.1107 16.7073 11.876 16.054C12.6507 15.3913 13.696 15.06 15.012 15.06C15.8427 15.06 16.5847 15.1953 17.238 15.466C17.9007 15.7367 18.4233 16.1287 18.806 16.642C19.1887 17.1553 19.3893 17.762 19.408 18.462C19.408 18.546 19.3753 18.616 19.31 18.672C19.254 18.728 19.184 18.756 19.1 18.756H17.112C16.9813 18.756 16.8833 18.7327 16.818 18.686C16.762 18.63 16.7107 18.532 16.664 18.392C16.5333 17.9347 16.3327 17.6173 16.062 17.44C15.8007 17.2533 15.4507 17.16 15.012 17.16C13.9573 17.16 13.4113 17.748 13.374 18.924C13.3647 19.176 13.36 19.5633 13.36 20.086C13.36 20.6087 13.3647 21.0053 13.374 21.276C13.4113 22.452 13.9573 23.04 15.012 23.04C15.4413 23.04 15.7913 22.9467 16.062 22.76C16.342 22.5733 16.5427 22.256 16.664 21.808C16.7013 21.668 16.7527 21.5747 16.818 21.528C16.8833 21.472 16.9813 21.444 17.112 21.444H19.1C19.184 21.444 19.254 21.472 19.31 21.528C19.3753 21.584 19.408 21.654 19.408 21.738C19.3893 22.438 19.1887 23.0447 18.806 23.558C18.4233 24.0713 17.9007 24.4633 17.238 24.734C16.5847 25.0047 15.8427 25.14 15.012 25.14ZM21.1868 25C21.0934 25 21.0094 24.9673 20.9348 24.902C20.8694 24.8273 20.8368 24.7433 20.8368 24.65V15.55C20.8368 15.4473 20.8694 15.3633 20.9348 15.298C21.0094 15.2327 21.0934 15.2 21.1868 15.2H23.1468C23.2494 15.2 23.3334 15.2327 23.3988 15.298C23.4641 15.3633 23.4968 15.4473 23.4968 15.55V22.802H27.6968C27.7994 22.802 27.8834 22.8393 27.9488 22.914C28.0234 22.9793 28.0608 23.0633 28.0608 23.166V24.65C28.0608 24.7527 28.0234 24.8367 27.9488 24.902C27.8834 24.9673 27.7994 25 27.6968 25H21.1868ZM33.1819 25.14C31.8566 25.14 30.8113 24.818 30.0459 24.174C29.2806 23.53 28.8746 22.5827 28.8279 21.332C28.8186 21.0707 28.8139 20.6693 28.8139 20.128C28.8139 19.5867 28.8186 19.1807 28.8279 18.91C28.8653 17.678 29.2713 16.7307 30.0459 16.068C30.8299 15.396 31.8753 15.06 33.1819 15.06C34.4793 15.06 35.5153 15.396 36.2899 16.068C37.0739 16.7307 37.4846 17.678 37.5219 18.91C37.5406 19.4513 37.5499 19.8573 37.5499 20.128C37.5499 20.408 37.5406 20.8093 37.5219 21.332C37.4753 22.5827 37.0693 23.53 36.3039 24.174C35.5479 24.818 34.5073 25.14 33.1819 25.14ZM33.1819 23.04C33.6673 23.04 34.0546 22.8953 34.3439 22.606C34.6333 22.3073 34.7873 21.8547 34.8059 21.248C34.8246 20.7067 34.8339 20.3193 34.8339 20.086C34.8339 19.8527 34.8246 19.4747 34.8059 18.952C34.7873 18.3453 34.6333 17.8973 34.3439 17.608C34.0546 17.3093 33.6673 17.16 33.1819 17.16C32.6873 17.16 32.2953 17.3093 32.0059 17.608C31.7166 17.8973 31.5626 18.3453 31.5439 18.952C31.5346 19.2133 31.5299 19.5913 31.5299 20.086C31.5299 20.59 31.5346 20.9773 31.5439 21.248C31.5626 21.8547 31.7166 22.3073 32.0059 22.606C32.2953 22.8953 32.6873 23.04 33.1819 23.04ZM42.8397 25.14C41.9344 25.14 41.1644 25.0093 40.5297 24.748C39.8951 24.4867 39.4144 24.1413 39.0877 23.712C38.7611 23.2827 38.5884 22.816 38.5697 22.312C38.5697 22.228 38.5977 22.158 38.6537 22.102C38.7191 22.046 38.7937 22.018 38.8777 22.018H40.7397C40.8517 22.018 40.9404 22.0367 41.0057 22.074C41.0804 22.1113 41.1597 22.1767 41.2437 22.27C41.3651 22.494 41.5517 22.6807 41.8037 22.83C42.0651 22.97 42.4104 23.04 42.8397 23.04C43.3437 23.04 43.7311 22.9653 44.0017 22.816C44.2724 22.6573 44.4077 22.4427 44.4077 22.172C44.4077 21.976 44.3377 21.8173 44.1977 21.696C44.0577 21.5653 43.8337 21.4533 43.5257 21.36C43.2177 21.2573 42.7744 21.1453 42.1957 21.024C41.0664 20.8 40.2217 20.4593 39.6617 20.002C39.1017 19.5447 38.8217 18.8913 38.8217 18.042C38.8217 17.4633 38.9804 16.95 39.2977 16.502C39.6244 16.0447 40.0817 15.69 40.6697 15.438C41.2671 15.186 41.9577 15.06 42.7417 15.06C43.5631 15.06 44.2724 15.2047 44.8697 15.494C45.4764 15.774 45.9384 16.1287 46.2557 16.558C46.5824 16.978 46.7551 17.3933 46.7737 17.804C46.7737 17.888 46.7457 17.9627 46.6897 18.028C46.6337 18.084 46.5637 18.112 46.4797 18.112H44.5197C44.3144 18.112 44.1557 18.028 44.0437 17.86C43.9877 17.664 43.8431 17.5007 43.6097 17.37C43.3764 17.23 43.0871 17.16 42.7417 17.16C42.3497 17.16 42.0464 17.23 41.8317 17.37C41.6171 17.51 41.5097 17.7153 41.5097 17.986C41.5097 18.2567 41.6497 18.4713 41.9297 18.63C42.2097 18.7793 42.7324 18.9333 43.4977 19.092C44.3751 19.2507 45.0704 19.4513 45.5837 19.694C46.1064 19.9273 46.4891 20.2353 46.7317 20.618C46.9837 20.9913 47.1097 21.4673 47.1097 22.046C47.1097 22.6807 46.9277 23.2313 46.5637 23.698C46.1997 24.1647 45.6957 24.524 45.0517 24.776C44.4077 25.0187 43.6704 25.14 42.8397 25.14ZM48.804 25C48.7106 25 48.6266 24.9673 48.552 24.902C48.4866 24.8273 48.454 24.7433 48.454 24.65V15.564C48.454 15.4613 48.4866 15.3773 48.552 15.312C48.6173 15.2373 48.7013 15.2 48.804 15.2H55.412C55.5146 15.2 55.5986 15.2373 55.664 15.312C55.7386 15.3773 55.776 15.4613 55.776 15.564V16.95C55.776 17.0527 55.7386 17.1367 55.664 17.202C55.5986 17.2673 55.5146 17.3 55.412 17.3H50.988V19.078H55.104C55.2066 19.078 55.2906 19.1153 55.356 19.19C55.4306 19.2553 55.468 19.3393 55.468 19.442V20.716C55.468 20.8187 55.4306 20.9073 55.356 20.982C55.2906 21.0473 55.2066 21.08 55.104 21.08H50.988V22.9H55.524C55.6266 22.9 55.7106 22.9373 55.776 23.012C55.8506 23.0773 55.888 23.1613 55.888 23.264V24.65C55.888 24.7527 55.8506 24.8367 55.776 24.902C55.7106 24.9673 55.6266 25 55.524 25H48.804ZM57.7864 25C57.693 25 57.609 24.9673 57.5344 24.902C57.469 24.8273 57.4364 24.7433 57.4364 24.65V15.564C57.4364 15.4613 57.469 15.3773 57.5344 15.312C57.5997 15.2373 57.6837 15.2 57.7864 15.2H61.4684C62.8497 15.2 63.923 15.5313 64.6884 16.194C65.4537 16.8473 65.855 17.79 65.8924 19.022C65.9017 19.2927 65.9064 19.652 65.9064 20.1C65.9064 20.548 65.9017 20.9027 65.8924 21.164C65.799 23.7213 64.3477 25 61.5384 25H57.7864ZM61.4684 22.9C62.0564 22.9 62.4904 22.76 62.7704 22.48C63.0504 22.2 63.1997 21.752 63.2184 21.136C63.237 20.8653 63.2464 20.5153 63.2464 20.086C63.2464 19.6567 63.237 19.3113 63.2184 19.05C63.1997 18.4527 63.0364 18.014 62.7284 17.734C62.4297 17.4447 61.9864 17.3 61.3984 17.3H60.0684V22.9H61.4684Z" fill="#B7B7B7"/>
</svg>
