<svg width="60" height="48" viewBox="0 0 60 48" fill="none" xmlns="http://www.w3.org/2000/svg">
<rect width="60" height="48" rx="4" fill="#5F4BB6"/>
<path fill-rule="evenodd" clip-rule="evenodd" d="M21.0607 14.9393C20.4749 14.3536 19.5251 14.3536 18.9393 14.9393C18.3536 15.5251 18.3536 16.4749 18.9393 17.0607L25.8787 24L18.9393 30.9393C18.3536 31.5251 18.3536 32.4749 18.9393 33.0607C19.5251 33.6464 20.4749 33.6464 21.0607 33.0607L29.0607 25.0607C29.6464 24.4749 29.6464 23.5251 29.0607 22.9393L21.0607 14.9393ZM33.0607 14.9393C32.4749 14.3536 31.5251 14.3536 30.9393 14.9393C30.3536 15.5251 30.3536 16.4749 30.9393 17.0607L37.8787 24L30.9393 30.9393C30.3536 31.5251 30.3536 32.4749 30.9393 33.0607C31.5251 33.6464 32.4749 33.6464 33.0607 33.0607L41.0607 25.0607C41.6464 24.4749 41.6464 23.5251 41.0607 22.9393L33.0607 14.9393Z" fill="white"/>
</svg>
