<svg width="9" height="10" viewBox="0 0 9 10" fill="none" xmlns="http://www.w3.org/2000/svg">
<path fill-rule="evenodd" clip-rule="evenodd" d="M3.96165 0C3.68551 0 3.46165 0.223858 3.46165 0.5V0.689643H1.55173C0.694733 0.689643 0 1.38438 0 2.24137C0 2.52704 0.231578 2.75862 0.517244 2.75862H8.48276C8.76842 2.75862 9 2.52704 9 2.24137C9 1.38438 8.30527 0.689643 7.44827 0.689643H5.53858V0.5C5.53858 0.223858 5.31472 0 5.03858 0H3.96165Z" fill="#FF6666"/>
<path fill-rule="evenodd" clip-rule="evenodd" d="M8.30777 3.4483H0.692383L1.35111 9.11548C1.40971 9.61971 1.8368 10 2.34442 10H6.65573C7.16335 10 7.59044 9.6197 7.64904 9.11548L8.30777 3.4483ZM3.73096 4.60449C3.73096 4.32834 3.5071 4.10449 3.23096 4.10449C2.95481 4.10449 2.73096 4.32834 2.73096 4.60449V8.45844C2.73096 8.73458 2.95481 8.95844 3.23096 8.95844C3.5071 8.95844 3.73096 8.73458 3.73096 8.45844V4.60449ZM6.26942 4.60449C6.26942 4.32834 6.04556 4.10449 5.76942 4.10449C5.49328 4.10449 5.26942 4.32834 5.26942 4.60449V8.45844C5.26942 8.73458 5.49328 8.95844 5.76942 8.95844C6.04556 8.95844 6.26942 8.73458 6.26942 8.45844V4.60449Z" fill="#FF6666"/>
</svg>
